<svg xmlns="http://www.w3.org/2000/svg" viewBox="0 -50 50 50"><path fill="currentColor" d="M49.998-40.494a20.542 20.542 0 01-5.892 1.614 10.28 10.28 0 004.511-5.671 20.53 20.53 0 01-6.514 2.488 10.246 10.246 0 00-7.488-3.237c-5.665 0-10.258 4.589-10.258 10.249 0 .804.091 1.586.266 2.337-8.526-.429-16.085-4.509-21.144-10.709a10.19 10.19 0 00-1.389 5.152c0 3.556 1.811 6.693 4.564 8.531a10.23 10.23 0 01-4.647-1.282l-.001.128c0 4.966 3.537 9.11 8.229 10.052a10.332 10.332 0 01-4.633.175 10.27 10.27 0 009.583 7.118 20.594 20.594 0 01-12.74 4.388 20.6 20.6 0 01-2.447-.145A29.048 29.048 0 0015.723-4.7c18.868 0 29.186-15.618 29.186-29.162 0-.445-.01-.887-.03-1.326a20.827 20.827 0 005.119-5.306z"/></svg>